<!-- Favicon version - optimized for small sizes -->
<svg width="32" height="32" viewBox="0 0 32 32" fill="none" xmlns="http://www.w3.org/2000/svg">
  <defs>
    <linearGradient id="logoGradient" x1="0%" y1="0%" x2="100%" y2="100%">
      <stop offset="0%" style="stop-color:#667eea;stop-opacity:1" />
      <stop offset="100%" style="stop-color:#764ba2;stop-opacity:1" />
    </linearGradient>
    
    <linearGradient id="sparkleGradient" x1="0%" y1="0%" x2="100%" y2="100%">
      <stop offset="0%" style="stop-color:#ffd700;stop-opacity:1" />
      <stop offset="50%" style="stop-color:#ff6b6b;stop-opacity:1" />
      <stop offset="100%" style="stop-color:#4ecdc4;stop-opacity:1" />
    </linearGradient>
  </defs>
  
  <!-- Background rounded square -->
  <rect x="2" y="2" width="28" height="28" rx="8" fill="url(#logoGradient)"/>
  
  <!-- Modern geometric M - slightly thicker for favicon -->
  <path d="M9 11 L9 21 M9 11 L16 18 L23 11 M23 11 L23 21" 
        stroke="white" 
        stroke-width="2.2" 
        fill="none" 
        stroke-linecap="round" 
        stroke-linejoin="round"/>
  
  <!-- AI Sparkles - simplified for small size -->
  <!-- Large sparkle top right -->
  <g transform="translate(25, 6)">
    <path d="M0 -2.5 L0.8 -0.8 L2.5 0 L0.8 0.8 L0 2.5 L-0.8 0.8 L-2.5 0 L-0.8 -0.8 Z" fill="url(#sparkleGradient)"/>
  </g>
  
  <!-- Medium sparkle bottom left -->
  <g transform="translate(6, 26)">
    <path d="M0 -1.8 L0.6 -0.6 L1.8 0 L0.6 0.6 L0 1.8 L-0.6 0.6 L-1.8 0 L-0.6 -0.6 Z" fill="url(#sparkleGradient)" opacity="0.9"/>
  </g>
  
  <!-- Small sparkle top left -->
  <g transform="translate(8, 8)">
    <path d="M0 -1.2 L0.4 -0.4 L1.2 0 L0.4 0.4 L0 1.2 L-0.4 0.4 L-1.2 0 L-0.4 -0.4 Z" fill="white" opacity="0.8"/>
  </g>
</svg>
